<?xml version="1.0" standalone="no"?><!DOCTYPE svg PUBLIC "-//W3C//DTD SVG 1.1//EN" "http://www.w3.org/Graphics/SVG/1.1/DTD/svg11.dtd"><svg t="1727596185830" class="icon" viewBox="0 0 1024 1024" version="1.1" xmlns="http://www.w3.org/2000/svg" p-id="6558" xmlns:xlink="http://www.w3.org/1999/xlink" width="200" height="200"><path d="M806.4 515.2c0 169.6-137.6 304-304 304-169.6 0-304-137.6-304-304 0-169.6 137.6-304 304-304 169.6-3.2 304 134.4 304 304z" fill="#FFFFFF" p-id="6559"></path><path d="M502.4 835.2c-176 0-320-144-320-320s144-320 320-320 320 144 320 320-144 320-320 320z m0-611.2c-160 0-288 131.2-288 288 0 160 131.2 288 288 288 160 0 288-131.2 288-288s-128-288-288-288z" fill="#37474F" p-id="6560"></path><path d="M137.6 361.6c0-118.4 96-211.2 211.2-211.2" fill="#B0BEC5" p-id="6561"></path><path d="M137.6 377.6c-9.6 0-16-6.4-16-16 0-124.8 102.4-227.2 227.2-227.2 9.6 0 16 6.4 16 16s-6.4 16-16 16c-108.8 0-195.2 86.4-195.2 195.2 0 6.4-6.4 16-16 16z" fill="#37474F" p-id="6562"></path><path d="M867.2 668.8c0 118.4-96 211.2-211.2 211.2" fill="#B0BEC5" p-id="6563"></path><path d="M656 896c-9.6 0-16-6.4-16-16s6.4-16 16-16c108.8 0 195.2-86.4 195.2-195.2 0-9.6 6.4-16 16-16s16 6.4 16 16c0 124.8-102.4 227.2-227.2 227.2z" fill="#37474F" p-id="6564"></path><path d="M656 147.2c115.2 0 211.2 96 211.2 211.2" fill="#B0BEC5" p-id="6565"></path><path d="M867.2 377.6c-9.6 0-16-6.4-16-16 0-108.8-86.4-195.2-195.2-195.2-9.6 0-16-6.4-16-16s6.4-16 16-16c124.8 0 227.2 102.4 227.2 227.2 0 6.4-6.4 16-16 16z" fill="#37474F" p-id="6566"></path><path d="M348.8 880c-118.4 0-211.2-96-211.2-211.2" fill="#B0BEC5" p-id="6567"></path><path d="M348.8 896c-124.8 0-227.2-102.4-227.2-227.2 0-9.6 6.4-16 16-16s16 6.4 16 16c0 108.8 86.4 195.2 195.2 195.2 9.6 0 16 6.4 16 16s-6.4 16-16 16z" fill="#37474F" p-id="6568"></path><path d="M348.8 822.4l153.6-236.8 153.6 236.8" fill="#37474F" p-id="6569"></path><path d="M348.8 835.2c-3.2 0-6.4 0-6.4-3.2-3.2-6.4-6.4-12.8 0-19.2l153.6-236.8c3.2-3.2 6.4-6.4 9.6-6.4 3.2 0 6.4 3.2 9.6 6.4l153.6 236.8c3.2 6.4 3.2 16 0 19.2-3.2 6.4-12.8 3.2-16-3.2L502.4 608l-144 224c-3.2 3.2-6.4 3.2-9.6 3.2z" fill="#37474F" p-id="6570"></path><path d="M579.2 515.2c0 41.6-35.2 76.8-76.8 76.8-41.6 0-76.8-35.2-76.8-76.8 0-41.6 35.2-76.8 76.8-76.8 41.6 0 76.8 32 76.8 76.8z" fill="#FFAB00" p-id="6571"></path><path d="M502.4 608c-51.2 0-92.8-41.6-92.8-92.8 0-51.2 41.6-92.8 92.8-92.8 51.2 0 92.8 41.6 92.8 92.8 0 51.2-41.6 92.8-92.8 92.8z m0-153.6c-32 0-60.8 28.8-60.8 60.8 0 32 28.8 60.8 60.8 60.8 35.2 0 60.8-28.8 60.8-60.8 0-35.2-25.6-60.8-60.8-60.8z" fill="#37474F" p-id="6572"></path><path d="M512 48v224" fill="#FFAB00" p-id="6573"></path><path d="M512 288c-9.6 0-16-6.4-16-16v-224c0-9.6 6.4-16 16-16s16 6.4 16 16v224c0 9.6-6.4 16-16 16z" fill="#37474F" p-id="6574"></path><path d="M512 752v224" fill="#FFAB00" p-id="6575"></path><path d="M512 992c-9.6 0-16-6.4-16-16v-224c0-9.6 6.4-16 16-16s16 6.4 16 16v224c0 9.6-6.4 16-16 16z" fill="#37474F" p-id="6576"></path><path d="M976 512h-256" fill="#FFAB00" p-id="6577"></path><path d="M976 528h-256c-9.6 0-16-6.4-16-16s6.4-16 16-16h256c9.6 0 16 6.4 16 16s-6.4 16-16 16z" fill="#37474F" p-id="6578"></path><path d="M272 512h-224" fill="#FFAB00" p-id="6579"></path><path d="M272 528h-224c-9.6 0-16-6.4-16-16s6.4-16 16-16h224c9.6 0 16 6.4 16 16s-6.4 16-16 16z" fill="#37474F" p-id="6580"></path><path d="M704 342.4c6.4 0 16-3.2 19.2-9.6 6.4-6.4 9.6-12.8 9.6-22.4 0-6.4-3.2-16-9.6-19.2-9.6-12.8-32-12.8-41.6 0-6.4 6.4-9.6 12.8-9.6 19.2 0 6.4 3.2 16 9.6 22.4 6.4 6.4 16 9.6 22.4 9.6zM640 406.4c6.4 0 16-3.2 19.2-9.6 6.4-6.4 9.6-12.8 9.6-22.4 0-6.4-3.2-16-9.6-22.4-12.8-9.6-32-9.6-41.6 0-6.4 6.4-9.6 12.8-9.6 22.4 0 6.4 3.2 16 9.6 19.2 6.4 9.6 12.8 12.8 22.4 12.8zM572.8 473.6c6.4 0 16-3.2 19.2-9.6 12.8-12.8 12.8-28.8 0-41.6-9.6-9.6-32-9.6-41.6 0-6.4 6.4-9.6 12.8-9.6 19.2 0 6.4 3.2 16 9.6 22.4 9.6 6.4 16 9.6 22.4 9.6zM409.6 566.4c-12.8 12.8-9.6 28.8 0 41.6 6.4 6.4 12.8 9.6 19.2 9.6 6.4 0 16-3.2 19.2-9.6 12.8-12.8 12.8-28.8 0-41.6-6.4-12.8-25.6-12.8-38.4 0zM345.6 630.4c-6.4 6.4-9.6 12.8-9.6 19.2 0 6.4 3.2 16 9.6 19.2 6.4 6.4 12.8 9.6 22.4 9.6 6.4 0 16-3.2 19.2-9.6 12.8-12.8 12.8-28.8 0-41.6-12.8-6.4-32-6.4-41.6 3.2zM329.6 716.8c0-6.4-3.2-16-9.6-19.2-9.6-12.8-32-9.6-41.6 0-12.8 9.6-12.8 28.8 0 41.6 6.4 6.4 12.8 9.6 19.2 9.6 6.4 0 16-3.2 19.2-9.6 9.6-6.4 12.8-16 12.8-22.4zM684.8 694.4c-6.4 6.4-9.6 12.8-9.6 22.4 0 6.4 3.2 16 9.6 19.2 6.4 6.4 12.8 9.6 22.4 9.6 6.4 0 16-3.2 19.2-9.6 6.4-6.4 9.6-12.8 9.6-19.2 0-6.4-3.2-16-9.6-22.4-12.8-9.6-32-9.6-41.6 0zM617.6 630.4c-9.6 9.6-9.6 28.8 0 41.6 6.4 6.4 12.8 9.6 22.4 9.6 6.4 0 16-3.2 22.4-9.6 9.6-12.8 9.6-28.8 0-41.6-12.8-12.8-32-9.6-44.8 0zM553.6 566.4c-6.4 6.4-9.6 12.8-9.6 22.4 0 6.4 3.2 16 9.6 19.2 6.4 6.4 12.8 9.6 22.4 9.6 6.4 0 16-3.2 19.2-9.6 6.4-6.4 9.6-12.8 9.6-22.4 0-6.4-3.2-16-9.6-19.2-12.8-12.8-32-12.8-41.6 0zM409.6 422.4c-6.4 6.4-9.6 12.8-9.6 22.4 0 6.4 3.2 16 9.6 19.2 6.4 6.4 12.8 9.6 22.4 9.6 6.4 0 16-3.2 19.2-9.6 6.4-6.4 9.6-12.8 9.6-19.2 0-6.4-3.2-16-9.6-22.4-9.6-9.6-28.8-12.8-41.6 0zM345.6 358.4c-6.4 6.4-9.6 12.8-9.6 19.2 0 6.4 3.2 16 6.4 19.2 6.4 6.4 12.8 9.6 22.4 9.6 6.4 0 16-3.2 22.4-9.6 9.6-12.8 9.6-28.8 0-41.6-12.8-9.6-32-9.6-41.6 3.2zM300.8 342.4c6.4 0 16-3.2 19.2-9.6 6.4-6.4 9.6-12.8 9.6-19.2 0-6.4-3.2-16-9.6-19.2-9.6-12.8-28.8-12.8-41.6 0-3.2 3.2-6.4 9.6-6.4 19.2 0 6.4 3.2 16 9.6 19.2 3.2 6.4 9.6 9.6 19.2 9.6z" fill="#37474F" p-id="6581"></path></svg>