<?xml version="1.0" standalone="no"?><!DOCTYPE svg PUBLIC "-//W3C//DTD SVG 1.1//EN" "http://www.w3.org/Graphics/SVG/1.1/DTD/svg11.dtd"><svg t="1727526724969" class="icon" viewBox="0 0 1024 1024" version="1.1" xmlns="http://www.w3.org/2000/svg" p-id="2362" data-spm-anchor-id="a313x.search_index.0.i1.70b33a810aA7vq" xmlns:xlink="http://www.w3.org/1999/xlink" width="32" height="32"><path d="M634.007017 232.152472H389.993437a42.659717 42.659717 0 0 1-32.847982-69.961936L479.152245 15.441111a42.659717 42.659717 0 0 1 65.695964 0l122.006789 146.749425a42.659717 42.659717 0 0 1-32.847981 69.961936z m0 559.695483H389.993437a42.659717 42.659717 0 0 0-32.847982 69.961935l122.00679 146.749426a42.659717 42.659717 0 0 0 65.695964 0l122.006789-146.749426a42.659717 42.659717 0 0 0-32.847981-69.961935zM162.19055 357.145442L15.441125 479.152231a42.659717 42.659717 0 0 0 0 65.695964l146.749425 122.00679a42.659717 42.659717 0 0 0 69.961935-32.847982V389.993424a42.659717 42.659717 0 0 0-69.961935-32.847982z m629.657418 32.847982v244.440176a42.659717 42.659717 0 0 0 69.961936 32.847982l146.749425-122.00679a42.659717 42.659717 0 0 0 0-65.695963L861.809904 357.145442a42.659717 42.659717 0 0 0-69.961936 32.847982zM512.000227 469.340497a42.659717 42.659717 0 1 0 42.659717 42.659716 42.659717 42.659717 0 0 0-42.659717-42.659716z" fill="#84adea" p-id="2363"></path></svg>