<?xml version="1.0" standalone="no"?><!DOCTYPE svg PUBLIC "-//W3C//DTD SVG 1.1//EN" "http://www.w3.org/Graphics/SVG/1.1/DTD/svg11.dtd"><svg t="1727526794112" class="icon" viewBox="0 0 1038 1024" version="1.1" xmlns="http://www.w3.org/2000/svg" p-id="7768" xmlns:xlink="http://www.w3.org/1999/xlink" width="32.4375" height="32"><path d="M60.70693 1023.999532a46.82106 46.82106 0 0 1-33.242953-80.064013l198.521296-198.521296a93.642121 93.642121 0 0 1 132.503601 0l165.746553 165.746553 31.838321-31.838321a131.098969 131.098969 0 0 0 36.052217-118.457282l-4.682106-22.94232a140.463181 140.463181 0 0 1 38.393269-128.757916l80.532224-80.532224a119.861914 119.861914 0 0 1 165.746554 0 23.41053 23.41053 0 0 0 33.242952 0l33.242953-33.242952a23.41053 23.41053 0 0 0 0-33.242953l-364.73606-362.395007a23.41053 23.41053 0 0 0-33.242953 0l-33.242952 33.242953a23.41053 23.41053 0 0 0 0 33.242952 117.052651 117.052651 0 0 1 0 165.746554l-74.913697 74.913697a140.463181 140.463181 0 0 1-143.740655 33.711163l-16.855582-5.618527a169.024028 169.024028 0 0 0-173.706134 40.734322l-4.682106 4.682106 99.260648 99.260648a46.82106 46.82106 0 0 1-66.017695 66.017695L27.463977 546.892927a93.642121 93.642121 0 0 1 0-132.503601l4.682106-4.682106a261.729727 261.729727 0 0 1 269.689308-63.676642l16.855581 5.618527a46.82106 46.82106 0 0 0 46.821061-11.237054l74.913696-74.913697a23.41053 23.41053 0 0 0 0-33.242952 117.052651 117.052651 0 0 1 0-165.746554l33.242953-33.242953a119.861914 119.861914 0 0 1 165.746554 0l364.267849 364.26785a117.052651 117.052651 0 0 1 0 165.746553l-33.242953 33.242953a119.861914 119.861914 0 0 1-165.746553 0 23.41053 23.41053 0 0 0-33.242953 0l-80.532224 80.532224a46.82106 46.82106 0 0 0-12.641686 42.138954l4.682106 22.94232a224.272879 224.272879 0 0 1-61.335589 203.203401l-31.838321 31.838321a93.642121 93.642121 0 0 1-132.503601 0l-164.810132-165.278343L93.949883 1010.421424a46.82106 46.82106 0 0 1-33.242953 13.578108z" fill="#84adea" p-id="7769"></path></svg>