<?xml version="1.0" standalone="no"?><!DOCTYPE svg PUBLIC "-//W3C//DTD SVG 1.1//EN" "http://www.w3.org/Graphics/SVG/1.1/DTD/svg11.dtd"><svg t="1727828235131" class="icon" viewBox="0 0 1024 1024" version="1.1" xmlns="http://www.w3.org/2000/svg" p-id="12391" width="128" height="128" xmlns:xlink="http://www.w3.org/1999/xlink"><path d="M514.21778501 39.84137306c96.61639952 0 193.23279904-0.04391627 289.80528231 0.04391627 108.38603355 0.13175017 179.97000244 71.2765523 180.05783496 179.35517063 0.17566641 190.29039019 0.17566641 380.58078037 0 570.87116916-0.08783252 106.05845651-71.58396889 178.03767451-177.24717629 178.21334093-196.87787222 0.30741521-393.75574306 0.30741521-590.63361526 0-105.09229186-0.17566641-176.32492926-71.67180141-176.36884552-176.23709672-0.08783252-191.03697077-0.13175017-382.03002528 0-573.06699606 0.08783252-109.08869789 70.57388797-179.09167031 180.18958513-179.17950421 98.06564581-0.08783252 196.13129025 0 294.19693467 0z" fill="#3b86fb" p-id="12392"></path><path d="M66.31294213 811.67465301v-280.49497409c17.0835362 24.15409987 31.88341162 45.19012449 48.87911392 64.64515537 53.05118639 60.69266561 119.98000116 95.16715322 198.15145209 110.66969297 59.37516947 11.76963404 110.49402791-6.9388135 158.582645-39.30530815 37.76822933-25.42767975 43.25779654-26.52559319 79.752446 0.17566643 37.85606186 27.66742289 79.62069584 43.82871209 125.86481749 42.55513221 39.26139189-1.05399717 77.55661911-11.33046866 113.78776824-27.93092184 64.90865431-29.731501 115.72009619-75.22904206 154.01532342-135.1751257 2.72282618-4.21598873 6.0165665-8.08064459 12.38446585-16.55653831v281.37330485c-19.98202741 65.30390206-102.2377169 108.25428339-166.00454015 107.85903427-185.85481877-1.09791345-371.7535538-0.79049823-557.60837257-0.08783252-41.36938486 0.17566641-77.90795058-12.12096689-111.15277599-34.95757064-26.26209424-17.96186695-47.82511811-40.66672054-56.6523433-72.76971485z" fill="#1D2E3A" p-id="12393"></path><path d="M526.77791728 261.40034305c19.05978041-9.48597324 19.85027862-17.87403444 2.63499227-31.00508086-3.77682334-2.85457495-6.63139829-5.97265023-5.26998454-10.93521955 1.58099508-5.84090006 7.20231385-6.80706473 11.81355031-8.65156013 6.49964814-2.63499227 19.54286203 3.68898943 14.66812663-13.39454538-3.03024138-10.6717206-5.40173469-16.11737155-17.21528636-10.67172059-4.4355714 2.06407811-8.87114144 0.26349895-9.79338985-5.31390218-0.92224702-5.70915129 0.65874806-11.41830119 7.59756296-10.05688878 12.95538138 2.54715973 11.76963404-7.50972906 14.22895988-14.44854394 3.60115693-10.14472131-5.09431948-10.89130329-10.75955312-12.38446585-10.05688879-2.67890991-11.46221883-9.48597324-11.81355031-18.26928217-0.39524911-9.70555594 1.27357986-17.56661783 11.81355031-20.55294296 6.10440039-1.75666151 12.25271567-4.12815482 8.6954764-11.68180152-2.50324348-5.35781843-0.04391627-16.77611962-12.51621602-13.39454536-4.39165515 1.18574735-6.98273115-0.7465806-7.33406262-5.31390219-0.35133285-4.87473679 1.18574735-8.91505908 6.58748204-9.57380714 5.05040321-0.6148318 10.23255522-0.57091554 15.32687332-0.57091556 90.77549808-0.04391627 181.50708126-0.04391627 272.2825807 0 5.84090006 0 11.85746656-0.26349895 17.43486768 1.01008092 12.77971495 2.89849259 23.67101825 6.89489726 10.14472271 22.5731048-5.84090006 6.80706473-12.6479648 15.01945811-1.22966362 23.8466833 3.38157424 2.63499227 0.96616466 6.89489726-1.2296636 9.8373061-3.95248839 5.35781843-7.72931173 1.88841167-10.97913581-0.92224701-9.61772341-8.21239338-15.37079094-6.06048275-22.04610551 4.78690288-8.08064459 13.17496406 3.7329057 12.99929765 9.31030681 16.42478815 8.38805981 5.182152 18.00578321 10.27647148 14.84379306 21.51910762-3.38157424 11.98921673-3.60115693 26.26209424-18.57669877 32.62999219-21.87043909 9.3103082-22.00218926 12.12096689-3.99640603 27.79917308 4.39165515 3.82073962 1.9762442 11.28655241-5.62131737 10.75955449-17.25920263-1.18574735-13.61412945 14.18504362-19.80636238 21.47518997-8.30022727 9.70555594-9.52989089 17.47878532 3.64507319 26.43776067 7.77322801 5.31390215 0.96616466 15.59037364-7.42189654 13.13104644-14.97554183-4.39165515-20.11377759 8.25631102-18.31319843 13.96546092 4.69907036 14.79987542-5.53348485 16.86395351-13.3506305 21.29952493-42.07205057 23.84668467-80.2794439 53.05118639-115.8079287 85.54942981-24.72501542 22.66093733-46.11237289 48.74736514-66.13831656 75.66820744-43.21388029 58.1015896-69.60772331 59.59475216-112.64593854 2.81065869-50.81144323-67.01664732-110.31836149-123.80074077-184.97648801-163.58913057-5.92873397-3.16199154-11.24263614-3.95248839-3.77682336-13.43846302 5.22606826-6.63139829 5.35781843-20.15769383-10.97913581-21.0360246-11.02305345-0.6148318-16.86395351-4.52340394-9.00289162-16.68828709 6.58748205-10.18863895 1.88841167-17.30311889-8.30022727-22.5731048-20.15769383-10.49605417-22.96835254-28.67750382-7.11447994-45.62928984 4.12815482-4.4355714 6.41181561-8.30022727 1.75666152-12.99929766-4.04032229-4.04032229-5.05040321-13.96546093-14.53637647-8.87114144-7.02664741 3.77682334-11.72571779 4.39165515-13.78979587-5.48956858-1.62491273-7.81714565-6.10440039-14.22896126 4.91865305-19.98202882 9.3103082-4.83082053 5.92873397-20.50902669-4.21598734-24.2419324-18.2253659-6.71923082-20.06986132-14.14112736-6.49964952-26.08642782 11.68180151-10.27647148 10.23255522-22.13393942-5.31390218-24.81284794-12.6479648-2.19582688-11.50613509-10.58388669-11.46221744-16.90786978 0.04391627-8.51980997 8.73939266-8.21239338 15.28295706-8.21239337 95.86981755-0.04391627 191.73963647-0.08783252 287.65337029 0 5.57740112 0 12.60404853-1.49316255 14.58029411 6.19223291 1.88841167 7.42189652 1.36141241 14.66812662-6.58748203 19.01586276-16.55653694 9.00289162-13.57021181 18.5327825 0 27.05259248 10.05688879 6.28006544 9.09072553 9.17855803-1.31749614 13.74587823-15.50253974 6.85098099-19.367197 14.79987542-1.80057914 25.64726245 16.77611962 10.364304 15.28295705 31.00508086-2.98632513 37.41689648-11.55005135 4.04032229-10.23255522 10.53997043-7.72931174 17.96186695 2.23974316 6.67531456 6.85098099 12.12096689 1.88841168 19.89419489-4.83082053 7.55364532-0.48308165 11.15480223 7.2462301 14.0972111 15.06337437 5.75306754 16.68828708 12.4283821 1.05399718 21.47518995-10.62780434 6.14831666-10.14472131 15.15120827 1.18574598 21.56302388 14.00937857 7.90497817 12.60404853 17.65445174 4.17207244 28.76533774-8.87114144 11.72571779-0.30741521 34.38665509 13.92154468 36.62639823 2.76674242 0.43916538 6.14831666 0.35133285 8.60764249-0.83441448 8.78330893-4.12815482 16.95178604-37.63647917 10.75955451-45.93670644-5.57740112-7.4658128-9.52989089-15.72212382 2.28365939-17.87403306 11.41830119-2.06407811 14.58029274-6.32398308 14.22896126-16.95178604-0.48308165-14.4924602-14.93162558-0.87833075-18.31319982-11.68180153z" fill="#1D2E3A" p-id="12394"></path><path d="M325.94755668 642.46420508c-79.84027853-4.34773749-147.69134171-33.99140598-198.45886731-97.62648045-30.60983175-38.38305975-30.3463328-87.04259237-1.27357987-123.01024255 30.21458265-37.37298021 76.5465382-46.55153825 122.26366197-24.63718152 49.23044677 23.58318434 92.13691185 55.94967898 131.5300525 93.36657407 10.05688879 9.57380715 19.63069594 19.71852847 30.17066638 28.67750519 21.51910762 18.31319981 30.39024907 41.19371982 23.53926807 68.46589362-7.02664741 27.84308933-28.50183739 42.0281343-54.72001537 47.78120047-17.0835362 3.68898943-34.16707241 11.98921673-53.05118637 6.98273117zM692.91420759 643.82561745c-22.52918716-1.01008092-47.73728421-4.83082053-70.92522083-16.68828709-36.71423215-18.79628146-47.56161779-67.06056495-19.41111186-96.66031579 50.98710829-53.57818567 106.01454026-102.76471618 174.12910099-134.34071119 71.62788516-33.24482402 146.72517706 17.39095141 141.54302505 95.21106949-1.31749613 19.58677968-9.39814073 36.49464946-20.99210834 51.9971892-43.65304566 58.18942212-127.88497934 100.26147271-204.34368501 100.48105538z" fill="#FFFFFF" p-id="12395"></path><path d="M66.31294213 811.67465301c30.30241654 50.10877753 71.18871978 85.90076266 130.12472249 98.50481119 9.52989089 2.02016047 18.75236519 2.45932721 28.15050591 2.45932583 187.17231491 0.08783252 374.38854745-0.13175017 561.56086233 0.17566643 68.90505899 0.08783252 122.30757822-27.4478402 159.68055845-85.63726232 3.51332302-5.44565094 7.90497817-10.364304 11.90138283-15.50254113-4.4355714 69.3003081-68.24631092 131.48613626-136.97570347 131.66180268-205.48551472 0.43916538-410.97102944 0.39524911-616.45654414 0.04391626-72.28663323-0.17566641-136.71220451-62.36149458-137.9857844-131.70571894z" fill="#15222B" p-id="12396"></path><path d="M66.26902586 371.7626208c0-59.94608364-2.28366079-120.02391743 0.70266434-179.79433601 2.45932721-49.14261425 28.80925398-86.16426161 73.29671413-108.82519893 5.31390215-2.72282618 14.00937857-9.00289162 16.4687044 0.04391764 2.10799436 7.77322801 8.69547639 16.9957023 0.83441449 26.34992678-4.87473679 5.79698381-18.75236519 5.26998591-13.61412945 18.62061501 3.51332302 9.13464178 9.52989089 9.44205699 18.57669876 10.05688879 5.13823574 0.35133285 13.70196197 12.25271567 2.45932584 19.85027863-7.29014636 4.91865306-13.13104642 8.91505908-9.61772342 18.9719465 3.07415763 8.73939266 7.86106191 9.57380715 16.6882871 7.90497818 10.62780434-2.02016047 8.82722518 9.61772341 11.63788526 15.37079095 3.55724066 7.29014636 5.22606826 15.2390408-4.04032232 20.94819207-5.09431948 3.16199154-14.4924602 5.26998591-9.79338983 13.8776284 3.42549049 6.19223292 7.72931173 15.50253974 18.44494859 10.36430538 5.97265023-2.85457495 9.79338985-2.02016047 10.49605418 5.13823575 0.5269979 5.53348485 9.83730609 10.05688879 1.22966361 16.73220335-12.07704925 9.3103082-4.17207247 18.57669876 3.2937417 23.89060092 3.7329057 2.63499227 15.01945811-2.28366079 12.38446584 7.81714427-1.71274525 6.54356577-11.63788387 3.7329057-17.43486906 2.2836608-36.01156644-9.04680787-65.78698508 4.04032229-92.97132633 25.77901122-15.37079094 12.29663331-26.04251156 28.85317024-39.04180783 44.6192103zM957.73097414 377.99877c-19.63069594-28.80925398-35.57240106-54.01735105-64.29382115-66.57748193-10.75955313-4.69907036-22.00218926-12.6479648-32.71782611-10.84738703-27.71134053 4.69907036-20.68469313-21.65085641-31.1807473-31.92732787-0.79049823-0.7465806 1.49316255-7.02664741 2.94240886-7.29014638 19.367197-3.07415763 12.77971495-15.76604007 11.37438491-27.5356741-1.36141241-11.59396761 1.62491273-21.56302388 15.15120828-25.33984724 9.3103082-2.591076 14.53637647-9.61772341 7.15839619-17.87403304-8.73939266-9.79338985-11.72571779-16.07345529 2.50324349-23.27576913 3.16199154-1.58099508 11.15480223-10.01297253 6.41181561-14.31679377-15.98562275-14.53637647-2.81065868-24.37368256 3.77682195-35.57240107 3.46940674-5.92873397 10.53997043-11.59396761-0.0878325-17.74228429-5.35781843-3.11807527-5.75306754-9.09072553-2.54715976-13.39454674 4.87473679-6.54356577 11.24263614-2.19582688 15.50254113 1.01008092 35.08931942 26.17426034 63.15199143 58.71642141 65.30390206 103.86262961 2.85457495 60.20958397 0.70266433 120.68266549 0.70266434 186.82098206z" fill="#1D2E3A" p-id="12397"></path></svg>